<svg width="72" height="72" viewBox="0 0 72 72" fill="none" xmlns="http://www.w3.org/2000/svg">
<g clip-path="url(#clip0_8_92)">
<path d="M21.4644 25.305L25.9455 29.7859L35.9999 19.8815V23.9891H40.2352V12.7054H28.9516V16.9407H32.9502L25.9679 23.8187L21.4644 19.3153L3.44887 37.3309L6.44364 40.3257L21.4644 25.305Z" fill="#086CF9"/>
<path d="M12.7058 71.9993H21.1764C21.1764 70.6027 21.1764 48.0878 21.1764 46.5876H12.7058V71.9993Z" fill="#086CF9"/>
<path d="M25.4116 72.0006H33.8822C33.8822 70.6769 33.8822 44.3311 33.8822 42.3535H25.4116V72.0006Z" fill="#086CF9"/>
<path d="M72.0002 21.1765L64.059 10.5882L72.0002 -1.52588e-05C70.5743 -1.52588e-05 45.777 -1.52588e-05 44.4708 -1.52588e-05V38.1176H38.1179V72H55.059V38.1176H48.7061V21.1765H72.0002Z" fill="#086CF9"/>
<path d="M8.47057 50.8232H-1.52588e-05V71.9997H8.47057C8.47057 71.0221 8.47057 51.7974 8.47057 50.8232Z" fill="#086CF9"/>
</g>
<defs>
<clipPath id="clip0_8_92">
<rect width="72" height="72" fill="white"/>
</clipPath>
</defs>
</svg>
