<svg width="16" height="16" viewBox="0 0 16 16" fill="none" xmlns="http://www.w3.org/2000/svg">
<g clip-path="url(#clip0_8_208)">
<path d="M7.99999 8.02063C3.78354 8.02063 0.353088 11.4511 0.353088 15.6675C0.353088 15.8511 0.502047 16 0.685573 16C0.869099 16 1.01806 15.8511 1.01806 15.6675C1.01806 11.8175 4.14997 8.68557 8.00002 8.68557C11.8501 8.68557 14.982 11.8175 14.982 15.6675C14.982 15.8511 15.131 16 15.3145 16C15.498 16 15.647 15.8511 15.647 15.6675C15.6469 11.4504 12.2164 8.02063 7.99999 8.02063Z" fill="#086CF9"/>
<path d="M7.99998 0C5.98385 0 4.34277 1.64042 4.34277 3.65721C4.34277 5.674 5.98388 7.31441 7.99998 7.31441C10.0161 7.31441 11.6572 5.674 11.6572 3.65721C11.6572 1.64042 10.0161 0 7.99998 0ZM7.99998 6.64947C6.35024 6.64947 5.00771 5.30694 5.00771 3.65721C5.00771 2.00747 6.35024 0.664938 7.99998 0.664938C9.64972 0.664938 10.9922 2.00747 10.9922 3.65721C10.9922 5.30694 9.64972 6.64947 7.99998 6.64947Z" fill="#086CF9"/>
</g>
<defs>
<clipPath id="clip0_8_208">
<rect width="16" height="16" fill="white"/>
</clipPath>
</defs>
</svg>
