<svg width="17" height="17" viewBox="0 0 17 17" fill="none" xmlns="http://www.w3.org/2000/svg">
<path fill-rule="evenodd" clip-rule="evenodd" d="M0 8.50001C0 5.80624 0 4.45936 0.45295 3.40163C1.02046 2.07637 2.07637 1.02046 3.40163 0.45295C4.45936 0 5.80624 0 8.50001 0C11.1938 0 12.5406 0 13.5984 0.45295C14.9236 1.02046 15.9796 2.07637 16.5471 3.40163C17 4.45936 17 5.80624 17 8.50001C17 11.1938 17 12.5407 16.5471 13.5984C15.9796 14.9236 14.9236 15.9796 13.5984 16.5471C12.5406 17 11.1938 17 8.50001 17C5.80624 17 4.45936 17 3.40163 16.5471C2.07637 15.9796 1.02046 14.9236 0.45295 13.5984C0 12.5407 0 11.1938 0 8.50001ZM8.50003 4.0002C6.0149 4.0002 4.00003 6.01508 4.00003 8.50021C4.00003 10.9853 6.0149 13.0002 8.50003 13.0002C10.9852 13.0002 13 10.9853 13 8.50021C13 6.01508 10.9852 4.0002 8.50003 4.0002ZM8.50003 11.3127C6.94978 11.3127 5.68753 10.0505 5.68753 8.50021C5.68753 6.94883 6.94978 5.6877 8.50003 5.6877C10.0503 5.6877 11.3125 6.94883 11.3125 8.50021C11.3125 10.0505 10.0503 11.3127 8.50003 11.3127ZM13.9371 3.66231C13.9371 3.99347 13.6686 4.26193 13.3375 4.26193C13.0063 4.26193 12.7379 3.99347 12.7379 3.66231C12.7379 3.33114 13.0063 3.06268 13.3375 3.06268C13.6686 3.06268 13.9371 3.33114 13.9371 3.66231Z" fill="#086CF9"/>
</svg>
