<svg width="20" height="20" viewBox="0 0 20 20" fill="none" xmlns="http://www.w3.org/2000/svg">
<g clip-path="url(#clip0_8_688)">
<path d="M16.796 3.59574C16.6962 3.59574 16.5962 3.55759 16.5199 3.48145L16.5144 3.47596C16.362 3.32352 16.362 3.07633 16.5144 2.9239C16.6669 2.77146 16.9141 2.77146 17.0665 2.9239L17.072 2.92939C17.2244 3.08183 17.2244 3.32902 17.072 3.48145C16.9959 3.55759 16.8959 3.59574 16.796 3.59574Z" fill="black"/>
<path d="M7.33093 8.64505C7.14371 8.64505 7.02087 8.74042 6.96213 8.93085L6.55899 10.233L6.16592 8.99387C6.08734 8.75812 5.9523 8.64062 5.76294 8.64062C5.58578 8.64062 5.45959 8.75812 5.38422 8.99387L4.98672 10.233L4.58359 8.93085C4.52057 8.74026 4.39651 8.64505 4.20944 8.64505C4.10202 8.64505 4.0123 8.68274 3.94257 8.75583C3.87161 8.82999 3.83621 8.91864 3.83621 9.02377C3.83621 9.07916 3.84613 9.13226 3.86612 9.18094L4.53934 10.9848C4.63684 11.2406 4.78958 11.368 4.99557 11.368C5.18936 11.368 5.32547 11.2517 5.40421 11.0192L5.77286 9.92847L6.14166 11.0192C6.22253 11.2517 6.35864 11.368 6.54907 11.368C6.75842 11.368 6.91116 11.2406 7.00638 10.9848L7.6796 9.18094C7.69852 9.12234 7.70844 9.06924 7.70844 9.02377C7.70844 8.91528 7.67303 8.82556 7.60101 8.75354C7.52899 8.68167 7.43835 8.64505 7.33093 8.64505Z" fill="black"/>
<path d="M15.8615 8.64505C15.6743 8.64505 15.5515 8.74042 15.4927 8.93085L15.0897 10.233L14.6967 8.99387C14.6181 8.75812 14.4839 8.64062 14.2935 8.64062C14.1165 8.64062 13.9902 8.75812 13.9149 8.99387L13.5175 10.233L13.1143 8.93085C13.0524 8.74026 12.9272 8.64505 12.7412 8.64505C12.6326 8.64505 12.5441 8.68274 12.4731 8.75583C12.4023 8.82999 12.3669 8.91864 12.3669 9.02377C12.3669 9.07916 12.3769 9.13226 12.3969 9.18094L13.0701 10.9848C13.1686 11.2406 13.3203 11.368 13.5274 11.368C13.7199 11.368 13.8562 11.2517 13.9348 11.0192L14.3036 9.92847L14.6722 11.0192C14.7542 11.2517 14.8904 11.368 15.0798 11.368C15.2902 11.368 15.4419 11.2406 15.5371 10.9848L16.2103 9.18094C16.2302 9.12234 16.2402 9.06924 16.2402 9.02377C16.2402 8.91528 16.2036 8.82556 16.1317 8.75354C16.0597 8.68167 15.97 8.64505 15.8615 8.64505Z" fill="black"/>
<path d="M11.5962 8.64505C11.409 8.64505 11.2862 8.74042 11.2274 8.93085L10.8244 10.233L10.4314 8.99387C10.3526 8.75812 10.2187 8.64062 10.0282 8.64062C9.85107 8.64062 9.72488 8.75812 9.64951 8.99387L9.25201 10.233L8.84903 8.93085C8.78693 8.74026 8.6618 8.64505 8.4758 8.64505C8.36731 8.64505 8.27759 8.68274 8.20786 8.75583C8.13705 8.82999 8.1015 8.91864 8.1015 9.02377C8.1015 9.07916 8.11157 9.13226 8.13141 9.18094L8.80463 10.9848C8.9032 11.2406 9.05487 11.368 9.26193 11.368C9.45465 11.368 9.59091 11.2517 9.66949 11.0192L10.0381 9.92847L10.407 11.0192C10.4889 11.2517 10.6239 11.368 10.8144 11.368C11.0237 11.368 11.1765 11.2406 11.2717 10.9848L11.9449 9.18094C11.9649 9.12234 11.9737 9.06924 11.9737 9.02377C11.9737 8.91528 11.9383 8.82556 11.8663 8.75354C11.7943 8.68167 11.7035 8.64505 11.5962 8.64505Z" fill="black"/>
<path d="M18.1009 4.13635C17.9742 3.96179 17.7303 3.92303 17.5557 4.04953C17.3811 4.17603 17.3422 4.42001 17.4687 4.59457C18.0083 5.33875 18.4277 6.147 18.7207 6.99829C17.7861 5.9819 16.3873 5.14481 14.6864 4.59686C14.3666 3.69308 13.9673 2.88193 13.504 2.20749C13.2269 1.80405 12.9326 1.45401 12.6239 1.1586C13.5803 1.44165 14.4881 1.8811 15.3171 2.46735C15.4932 2.59186 15.7367 2.55005 15.8612 2.37396C15.9857 2.19803 15.9438 1.95435 15.7678 1.82999C14.0747 0.632782 12.0801 0 9.99939 0C7.32834 0 4.8172 1.04004 2.92862 2.92862C1.04004 4.8172 0 7.32834 0 9.99939C0 12.6706 1.04004 15.1819 2.92862 17.0708C4.8172 18.9597 7.32834 20 9.99939 20C12.6704 20 15.1819 18.9597 17.0708 17.0708C18.9597 15.1819 20 12.6706 20 9.99939C20 7.8775 19.3433 5.85022 18.1009 4.13635ZM17.9283 11.172V10.3897H19.1931C18.997 11.9086 17.6651 13.3168 15.5302 14.25C15.4219 14.102 15.2856 13.9758 15.1294 13.8791C15.2077 13.5394 15.2759 13.1912 15.3331 12.838H16.2634C17.1814 12.838 17.9283 12.0906 17.9283 11.172ZM16.9138 6.49216C18.2494 7.3703 19.0454 8.46466 19.1937 9.60907H17.9283V8.83682C17.9283 7.91809 17.1814 7.17087 16.2634 7.17087H15.3355C15.2435 6.60324 15.1233 6.05209 14.9774 5.52429C15.6883 5.79071 16.3406 6.11526 16.9138 6.49216ZM14.5441 7.17087H10.3897V5.64865C10.8403 5.51971 11.1996 5.17349 11.3469 4.73114C12.3016 4.81277 13.2208 4.98093 14.0755 5.2269C14.2703 5.83801 14.4283 6.49063 14.5441 7.17087ZM10.3897 0.81192C11.4981 0.987854 12.3351 1.88446 12.8607 2.64954C13.1955 3.13705 13.4946 3.70468 13.7512 4.33228C13.0038 4.14932 12.2095 4.01962 11.3797 3.9505C11.2599 3.45383 10.8783 3.05847 10.3897 2.91855V0.81192ZM10.6389 4.2836C10.6389 4.63623 10.352 4.9231 9.99939 4.9231C9.64676 4.9231 9.35989 4.63623 9.35989 4.2836C9.35989 3.93097 9.64676 3.6441 9.99939 3.6441C10.352 3.6441 10.6389 3.93097 10.6389 4.2836ZM9.60907 5.64865V7.17087H5.45578C5.57144 6.49078 5.72922 5.83817 5.92407 5.22705C6.77841 4.98108 7.69745 4.81293 8.65204 4.73114C8.79944 5.17365 9.15878 5.51971 9.60907 5.64865ZM9.60907 0.81192V2.91855C9.12048 3.05847 8.73901 3.45383 8.61908 3.9505C7.78961 4.01978 6.99539 4.14948 6.24817 4.33243C6.50482 3.70483 6.80389 3.13721 7.13882 2.64954C7.66449 1.88446 8.50113 0.988007 9.60907 0.81192ZM7.37076 1.16318C7.0639 1.45752 6.77109 1.80618 6.49536 2.20764C6.03195 2.88208 5.63263 3.69339 5.31296 4.59702C3.61557 5.14404 2.21924 5.9787 1.28464 6.99249C2.25128 4.19922 4.52499 2.01126 7.37076 1.16318ZM3.81302 12.838H4.66583C4.72275 13.1883 4.79095 13.5365 4.86984 13.8789C4.71344 13.9757 4.57733 14.1019 4.46884 14.2496C2.33459 13.3168 1.00296 11.9087 0.806885 10.3899H2.14813V11.1722C2.14813 12.0906 2.89505 12.838 3.81302 12.838ZM2.14813 8.83682V9.60907H0.806427C0.95459 8.46481 1.75064 7.3703 3.08624 6.49216C3.65921 6.11542 4.31137 5.79086 5.02228 5.52444C4.87656 6.05225 4.75647 6.60339 4.66446 7.17087H3.81302C2.89505 7.17087 2.14813 7.91809 2.14813 8.83682ZM1.28662 13.0124C1.99753 13.7833 2.98431 14.4583 4.19861 14.9835C4.19617 15.0179 4.19449 15.0525 4.19449 15.0874C4.19449 15.8705 4.83154 16.5076 5.61462 16.5076C5.66391 16.5076 5.71274 16.505 5.7608 16.5001C6.21811 17.4692 6.7662 18.2573 7.37595 18.8383C4.52957 17.9918 2.25479 15.8049 1.28662 13.0124ZM4.97513 15.0874C4.97513 14.7348 5.26199 14.4479 5.61462 14.4479C5.96725 14.4479 6.25397 14.735 6.25397 15.0874C6.25397 15.4401 5.96725 15.7269 5.61462 15.7269C5.26199 15.7269 4.97513 15.4401 4.97513 15.0874ZM9.60907 19.1879C8.42285 18.9966 7.31033 17.9379 6.48575 16.2077C6.62949 16.0957 6.75125 15.9566 6.84326 15.7982C7.73529 15.9781 8.66272 16.08 9.60907 16.102V19.1879ZM9.60907 15.3212C8.72742 15.2997 7.86407 15.2055 7.03354 15.0403C7.00851 14.2816 6.38611 13.6717 5.62256 13.6676C5.5603 13.3942 5.50476 13.1171 5.45715 12.838H9.60907V15.3212ZM3.81302 12.0573C3.3255 12.0573 2.92877 11.6602 2.92877 11.172V8.83682C2.92877 8.34869 3.3255 7.95151 3.81302 7.95151H14.9986H14.9995H15H16.2634C16.7509 7.95151 17.1477 8.34869 17.1477 8.83682V11.172C17.1477 11.6602 16.7509 12.0573 16.2634 12.0573H3.81302ZM14.3843 14.4479C14.4504 14.4479 14.5142 14.4582 14.5741 14.4768C14.5743 14.4768 14.5743 14.4768 14.5744 14.4769C14.8344 14.558 15.0238 14.801 15.0238 15.0874C15.0238 15.4401 14.7369 15.7269 14.3843 15.7269C14.0317 15.7269 13.7448 15.4401 13.7448 15.0874C13.7448 14.735 14.0317 14.4479 14.3843 14.4479ZM12.9654 15.0404C12.135 15.2057 11.2717 15.2997 10.3897 15.3212V12.838H14.5419C14.494 13.119 14.4386 13.396 14.3767 13.6676C13.613 13.6716 12.9903 14.2816 12.9654 15.0404ZM10.3897 19.1879V16.102C11.3365 16.08 12.2638 15.9782 13.1558 15.7985C13.2478 15.9569 13.3694 16.0959 13.5133 16.2079C12.6895 17.9381 11.5768 18.9967 10.3897 19.1879ZM12.6241 18.8382C13.2336 18.257 13.7816 17.4692 14.2381 16.5001C14.2862 16.505 14.335 16.5076 14.3843 16.5076C15.1674 16.5076 15.8044 15.8705 15.8044 15.0874C15.8044 15.0526 15.8028 15.0182 15.8002 14.984C17.0151 14.4585 18.0023 13.7831 18.7134 13.0119C17.7454 15.8044 15.4706 17.9913 12.6241 18.8382Z" fill="black"/>
</g>
<defs>
<clipPath id="clip0_8_688">
<rect width="20" height="20" fill="white"/>
</clipPath>
</defs>
</svg>
